<svg xmlns="http://www.w3.org/2000/svg" xmlns:xlink="http://www.w3.org/1999/xlink" viewBox="0 0 27 23"><defs><style>.cls-1{clip-rule:evenodd;}.cls-2{fill:#fff;}.cls-3{fill-rule:evenodd;}.cls-4{clip-path:url(#clip-path);}</style><clipPath id="clip-path"><path class="cls-1" d="M6,17V6.53l7.24,5.76a.45.45,0,0,0,.58,0L21,6.53V17ZM20.06,6,13.5,11.25,6.94,6ZM22,17.49v-12a.51.51,0,0,0-.14-.36A.47.47,0,0,0,21.51,5h-16A.5.5,0,0,0,5,5.51v12a.51.51,0,0,0,.14.36.47.47,0,0,0,.35.15h16a.47.47,0,0,0,.35-.15.51.51,0,0,0,.14-.36Z"/></clipPath></defs><title>Envelope</title><g id="Layer_2" data-name="Layer 2"><g id="Layer_1-2" data-name="Layer 1"><rect class="cls-2" x="5.28" y="5.68" width="16.31" height="11.75"/><path class="cls-3" d="M6,17V6.53l7.24,5.76a.45.45,0,0,0,.58,0L21,6.53V17ZM20.06,6,13.5,11.25,6.94,6ZM22,17.49v-12a.51.51,0,0,0-.14-.36A.47.47,0,0,0,21.51,5h-16A.5.5,0,0,0,5,5.51v12a.51.51,0,0,0,.14.36.47.47,0,0,0,.35.15h16a.47.47,0,0,0,.35-.15.51.51,0,0,0,.14-.36Z"/><g class="cls-4"><rect width="27" height="23"/></g></g></g></svg>