<svg xmlns="http://www.w3.org/2000/svg" viewBox="0 0 17.01 17.01"><defs><style>.cls-1{fill:#fff;fill-rule:evenodd;}</style></defs><title>Asset 22</title><g id="Layer_2" data-name="Layer 2"><g id="Layer_1-2" data-name="Layer 1"><circle cx="8.51" cy="8.5" r="8.5"/><path class="cls-1" d="M11.49,6.16a.55.55,0,0,1-1.1,0,.55.55,0,0,1,1.1,0ZM8.5,10A1.47,1.47,0,1,0,7,8.51,1.5,1.5,0,0,0,8.5,10Zm0-3.72a2.3,2.3,0,0,1,2.35,2.26A2.3,2.3,0,0,1,8.5,10.76,2.3,2.3,0,0,1,6.16,8.51,2.3,2.3,0,0,1,8.5,6.25Zm0-1.34c-1.21,0-1.36,0-1.84,0a2.35,2.35,0,0,0-.84.15,1.42,1.42,0,0,0-.53.32A1.35,1.35,0,0,0,5,5.92a2.37,2.37,0,0,0-.16.81c0,.47,0,.6,0,1.78s0,1.3,0,1.77a2.37,2.37,0,0,0,.16.81,1.35,1.35,0,0,0,.34.51,1.42,1.42,0,0,0,.53.32,2.35,2.35,0,0,0,.84.15c.48,0,.63,0,1.84,0s1.37,0,1.85,0a2.35,2.35,0,0,0,.84-.15,1.42,1.42,0,0,0,.53-.32,1.35,1.35,0,0,0,.34-.51,2.37,2.37,0,0,0,.16-.81c0-.47,0-.6,0-1.77s0-1.31,0-1.78a2.37,2.37,0,0,0-.16-.81,1.35,1.35,0,0,0-.34-.51,1.42,1.42,0,0,0-.53-.32,2.35,2.35,0,0,0-.84-.15C9.87,4.91,9.72,4.91,8.5,4.91Zm0-.79c1.24,0,1.4,0,1.89,0a3.38,3.38,0,0,1,1.1.2,2.13,2.13,0,0,1,.81.51,2.17,2.17,0,0,1,.53.77A3.15,3.15,0,0,1,13,6.7c0,.46,0,.61,0,1.81s0,1.34,0,1.8a3.15,3.15,0,0,1-.21,1.07,2.17,2.17,0,0,1-.53.77,2.13,2.13,0,0,1-.81.51,3.38,3.38,0,0,1-1.1.2c-.49,0-.65,0-1.89,0s-1.39,0-1.88,0a3.38,3.38,0,0,1-1.1-.2,2.13,2.13,0,0,1-.81-.51,2.17,2.17,0,0,1-.53-.77A3.15,3.15,0,0,1,4,10.31c0-.46,0-.61,0-1.8S4,7.16,4,6.7a3.15,3.15,0,0,1,.21-1.07,2.17,2.17,0,0,1,.53-.77,2.13,2.13,0,0,1,.81-.51,3.38,3.38,0,0,1,1.1-.2C7.11,4.12,7.27,4.12,8.5,4.12Z"/></g></g></svg>