<svg id="Layer_1" data-name="Layer 1" xmlns="http://www.w3.org/2000/svg" xmlns:xlink="http://www.w3.org/1999/xlink" viewBox="0 0 91.05 54.93"><defs><style>.cls-1{fill:#fff;}.cls-2{mask:url(#mask);}.cls-3{fill:#030000;}</style><mask id="mask" x="0" y="0" width="91.05" height="54.93" maskUnits="userSpaceOnUse"><g transform="translate(0 0)"><g id="mask-2"><polygon id="path-1" class="cls-1" points="0 54.93 91.05 54.93 91.05 0 0 0 0 54.93"/></g></g></mask></defs><title>into-logo-black</title><g id="Symbols"><g id="Global-Nav"><g id="Into_logo" data-name="Into logo"><g class="cls-2"><path id="Fill-1" class="cls-3" d="M79,23.66h0A14,14,0,0,0,78.8,20a1.3,1.3,0,0,0-.63-.31h0a6.38,6.38,0,0,0-2.23.65,2.25,2.25,0,0,0-1.06,1c-1.71,4.63-3.24,8.8-4.6,13a30,30,0,0,0-.9,4.11c-.06.35-.12.71-.19,1.07l.36-.32c.7-.6,1.41-1.23,2.08-1.87,4.55-4.38,6.9-8.72,7.4-13.65Zm6.3-1.19a23.47,23.47,0,0,1-6,15.64A53.74,53.74,0,0,1,74,43.34l0,0A5.78,5.78,0,0,1,70.11,45a5.33,5.33,0,0,1-2.25-.53A11.29,11.29,0,0,0,66.42,44l-.72-.23a4.51,4.51,0,0,1-3.16-4.45c-.12-4.35,1.51-8.22,3.08-12l.29-.7c.36-.87.78-1.69,1.21-2.57l.34-.68-.17-.07c-.53-.23-1.09-.48-1.63-.73-1.05-.5-1.32-1.13-1.35-1.57a1.74,1.74,0,0,1,.94-1.58,36.13,36.13,0,0,1,5-2.83c4.37-2,8.41-.51,12.51,1.37a4.75,4.75,0,0,1,2.58,4.52Zm-67.1-7.14-.42-.17c-2.12-.87-3.13-1.22-3.92-.86s-1,1.09-1.44,2.36l-.26.74c-1.07,2.93-2.12,5.93-3.14,8.82Q8.08,29,7.1,31.73,6,34.69,5,37.64c-1.45,4-3,8.15-4.34,12.26-.55,1.63-.85,2.59-.45,3.36s1.4,1.1,3,1.6a1.47,1.47,0,0,0,.43.06,2.27,2.27,0,0,0,1.61-.68,17.44,17.44,0,0,0,1.84-2.76C7.76,50.34,8.37,49.2,9,48l.81-1.52.3-.55L8.5,45.17c3.89-8.83,8.23-18.8,9.68-29.4ZM89.9,1.24c-.2,0-19.62.26-23.16-.08a.89.89,0,0,0-.1-.68A1.23,1.23,0,0,0,65.73,0s-3.63.36-4,.74a3.64,3.64,0,0,1-2.26.66l-.59.05-3.75.42c-2.32.27-4.74.57-7.22.89a12.85,12.85,0,0,0-1.67.48l-.25.09-.1.25c-1,2.45-.52,2.73-.23,2.91,2.45,1.45,6,.86,9.05.33.93-.16,1.8-.3,2.56-.38a13.48,13.48,0,0,1,1.65,0H59L59,6.59l-.51,1.69-1.81,6c-1.44,4.74-2.92,9.65-4.42,14.46-1.74,5.61-3.49,11.6-4,17.81-.38,4.48.21,4.88,3.42,6.25l.34.15a2.37,2.37,0,0,0,.93.22,1.5,1.5,0,0,0,1.37-1,30.19,30.19,0,0,0,1.49-3.59c.68-2.14.53-2.58-1-3.74l.75-2.46c.64-2.11,1.31-4.29,1.92-6.46l1-3.65c1.38-4.89,2.8-10,4-15a72.82,72.82,0,0,0,1.3-7.88c.11-.89.23-1.79.35-2.68s.39-1.09,1.86-1c2.6.08,5.38.18,8.07.29l1.29.05A12.4,12.4,0,0,0,81.1,4.9a4.66,4.66,0,0,1,1-.47c.17-.06.39-.13.75-.28A20.44,20.44,0,0,1,85,3.74c3.45-.58,5-.93,5.42-1.57l.66-.94ZM48.56,15.87c-1.79,10.7-3.27,19.38-4.67,27.32-.29,1.66-.62,3.51-2.39,4.57a3,3,0,0,1-1.44.41,1.86,1.86,0,0,1-.46-.05c-3.29-.84-6.72-1.89-9.23-4.51a26.71,26.71,0,0,1-3.73-5.12,35.89,35.89,0,0,1-1.91-4l-.26-.61c-.67,1.63-1.7,4.2-2.72,6.71-1.15,2.85-2.24,5.54-2.75,6.79a1.2,1.2,0,0,1-.28.39l-.1.11-.24.28L18,48.05,17.68,48l-.81-.22c-1.49-.46-2.31-.71-2.66-1.41s-.08-1.5.46-3C15.8,40.22,17,37.06,18.18,34c.68-1.78,1.37-3.56,2-5.34.94-2.49,1.84-4.92,2.67-7.4a3.16,3.16,0,0,1,2.29-2.13,2.81,2.81,0,0,1,2.7.82,2,2,0,0,1,.43,1.29c.11,4.21,1.37,8.14,2.88,12.48A35.49,35.49,0,0,0,35.78,42l.1.14.21-.81c.31-1.22.61-2.38.88-3.55q1.05-4.63,2.09-9.25c1.2-5.3,2.43-10.79,3.68-16.18.22-1,.38-1.55.9-1.82s1.1,0,2,.34c3.29,1.34,3.45,1.62,2.88,5Z" transform="translate(0 0)"/></g></g></g></g></svg>