<?xml version="1.0" encoding="UTF-8"?>
<svg width="91px" height="55px" viewBox="0 0 91 55" version="1.1" xmlns="http://www.w3.org/2000/svg" xmlns:xlink="http://www.w3.org/1999/xlink">
    <!-- Generator: Sketch 45.2 (43514) - http://www.bohemiancoding.com/sketch -->
    <title>Into_logo</title>
    <desc>Image.</desc>
    <defs>
        <polygon id="path-1" points="0 54.92575 91.052934 54.92575 91.052934 0 0 0"></polygon>
    </defs>
    <g id="Symbols" stroke="none" stroke-width="1" fill="none" fill-rule="evenodd">
        <g id="Global-Nav" transform="translate(-754.000000, -10.000000)">
            <g id="Into_logo">
                <g transform="translate(754.000000, 10.000000)">
                    <mask id="mask-2" fill="white">
                        <use xlink:href="#path-1"></use>
                    </mask>
                    <g id="Clip-2"></g>
                    <path d="M79.0397694,23.6556179 L79.0397694,23.6556179 C79.1621202,22.4440464 78.9989858,21.1817964 78.8001657,19.9941893 C78.6817364,19.8645464 78.3186054,19.6795107 78.171157,19.6795107 L78.1672355,19.6795107 C77.4519537,19.7400107 76.6602027,19.9698321 75.9409995,20.3261536 C75.4453218,20.5716893 75.0002314,20.9802607 74.8829786,21.2976893 C73.1728121,25.9227964 71.6457797,30.0949393 70.2822739,34.3209036 C69.8583596,35.6350107 69.6152266,37.0540107 69.3795444,38.4270464 C69.3191533,38.7786536 69.2575857,39.1373321 69.192881,39.4964036 C69.3140553,39.3911179 69.436014,39.2854393 69.5571884,39.1797607 C70.2528626,38.5759393 70.9716737,37.9512964 71.6402896,37.3077964 C76.188054,32.9294036 78.5389937,28.5910821 79.0397694,23.6556179 L79.0397694,23.6556179 Z M85.341229,22.4625107 C85.349072,28.222975 83.3463615,33.4852964 79.3899594,38.1025464 C77.753125,40.0134036 75.8311975,41.703475 73.9724061,43.3385464 L73.9410341,43.3660464 C72.7038006,44.4542607 71.4226463,44.9999393 70.1124729,44.9999393 C69.3693485,44.9999393 68.6172047,44.824725 67.8580021,44.4731179 C67.4101667,44.2652964 66.9282143,44.1171893 66.418027,43.9604393 C66.1784233,43.8861893 65.9388196,43.812725 65.701961,43.7321893 C63.7274854,43.0643321 62.6067204,41.483475 62.5451529,39.2799393 C62.4247628,34.9341536 64.0514013,31.060975 65.6247074,27.3150821 L65.9180357,26.6154036 C66.2807745,25.7483679 66.6933164,24.9221893 67.1293873,24.0472964 C67.2415422,23.8217964 67.3552657,23.5939393 67.4689892,23.3629393 L67.301149,23.289475 C66.7670406,23.0553321 66.2145011,22.8129393 65.6752948,22.5567964 C64.6204111,22.0559036 64.3592391,21.4245821 64.3262985,20.9830107 C64.2949265,20.5740464 64.4337476,19.9678679 65.2678509,19.4041179 C66.8815484,18.3123679 68.5595586,17.3592964 70.2548234,16.5708321 C74.6272967,14.5370107 78.6668347,16.059725 82.7644108,17.9438679 C84.3749712,18.6847964 85.3384839,20.3740821 85.341229,22.4625107 L85.341229,22.4625107 Z M18.2396451,15.3266536 L17.8184759,15.1537964 C15.6996891,14.2836179 14.6887262,13.9382964 13.8954066,14.2954036 C13.1691446,14.621475 12.8997375,15.3883321 12.4534708,16.6584393 C12.3734721,16.8862964 12.286807,17.1330107 12.1895538,17.4001536 C11.1225134,20.3344036 10.0688061,23.3275821 9.05000024,26.2225464 C8.40334477,28.0591536 7.75708144,29.8961536 7.10297511,31.7307964 C6.39945788,33.7041179 5.68574474,35.6739036 4.97242375,37.6436893 C3.52146847,41.6504393 2.02110228,45.7931179 0.631714558,49.9004393 C0.0795672504,51.5315821 -0.213368856,52.491725 0.18231057,53.2652607 C0.586617299,54.056475 1.57954129,54.3613321 3.22343441,54.8657607 C3.35558899,54.9066179 3.50264527,54.9258679 3.6571524,54.9258679 C4.23792666,54.9258679 4.91869919,54.6563679 5.26771276,54.248975 C6.02103305,53.3685821 6.61317967,52.3628679 7.10846522,51.4899393 C7.76021864,50.341225 8.36687481,49.2003679 9.00960878,47.9931179 C9.27705514,47.4906536 9.54646224,46.9842607 9.82135944,46.4731536 L10.1190013,45.9207964 L8.50216659,45.173975 C12.3958247,36.3460821 16.7298673,26.3785107 18.1784697,15.7788321 L18.2396451,15.3266536 Z M89.90115,1.24311786 C89.7042907,1.24586786 70.2850189,1.49886786 66.7391979,1.16611786 C66.7788051,0.977546429 66.7893932,0.732796429 66.6372389,0.489225 C66.4192035,0.139975 66.0137203,0.0429392857 65.728235,0.000117857143 C65.6929415,-0.00773928571 62.0953567,0.359582143 61.6843835,0.736332143 C61.1059621,1.26629643 60.287937,1.33151071 59.4220697,1.40104643 C59.2232496,1.41676071 59.0248216,1.43286786 58.8287466,1.45408214 C57.5773957,1.58961786 56.3268291,1.73026071 55.0770468,1.87640357 C52.7602242,2.14629643 50.3328152,2.447225 47.8614854,2.77015357 C47.4234538,2.82711786 46.3979813,3.17715357 46.1964162,3.24668929 L45.945048,3.33351071 L45.8442654,3.57983214 C44.8403612,6.02851071 45.3219215,6.31451071 45.6093675,6.48579643 C48.0544233,7.938975 51.5653429,7.34458214 54.6637206,6.819725 C55.5888027,6.662975 56.4636895,6.51486786 57.2248528,6.43904643 C57.7420987,6.38758214 58.2671877,6.40054643 58.8754125,6.41508214 C58.9267841,6.41665357 58.9789401,6.41783214 59.031096,6.41901071 L58.9789401,6.59304643 C58.8028647,7.18665357 58.6397303,7.73390357 58.4734586,8.27958214 C57.8675868,10.2729393 57.2632835,12.2662964 56.6593724,14.2600464 C55.2225345,19.0037964 53.73707,23.9086179 52.2410175,28.7211179 C50.4986947,34.3264036 48.7532347,40.3186536 48.22893,46.5293321 C47.8508974,51.0063321 48.4418675,51.4074393 51.6441651,52.7836179 L51.9814141,52.928975 C52.3406236,53.0837607 52.6492457,53.1474036 52.9147313,53.1474036 C53.6955021,53.1474036 54.0962795,52.5950464 54.2841194,52.194725 C54.7935223,51.1092607 55.3711594,49.8788321 55.7774269,48.6071536 C56.4605523,46.4711893 56.3072216,46.031975 54.7331312,44.8640107 C54.9794015,44.0468679 55.2292011,43.2273679 55.4801771,42.4062964 C56.1240875,40.2966536 56.7899584,38.1155107 57.3962224,35.944975 C57.7358243,34.7290821 58.0781714,33.5131893 58.4205184,32.2976893 C59.7989259,27.4054393 61.2236071,22.3466179 62.4377038,17.3200107 C63.0635753,14.7295107 63.4059223,12.0411893 63.7372891,9.44165357 C63.8514048,8.54711786 63.9651283,7.65258214 64.0906163,6.76118929 C64.2223788,5.82029643 64.4827664,5.67336786 65.9513684,5.71618929 C68.5536763,5.791225 71.335589,5.90043929 74.0261307,6.00611786 L75.3143437,6.05679643 C76.9860794,6.12083214 79.5083887,5.788475 81.0962044,4.90258214 C81.6954097,4.56826071 81.8052117,4.53093929 82.0981478,4.43154643 C82.2671645,4.37379643 82.4863764,4.29954643 82.8526446,4.15536786 C83.1000913,4.05793929 84.0526238,3.89765357 84.9741765,3.742475 C88.4231364,3.162225 89.93762,2.815725 90.389769,2.17143929 L91.053287,1.22779643 L89.90115,1.24311786 Z M48.557944,15.8742964 C46.7713082,26.570225 45.2889809,35.2511893 43.8929267,43.1920107 C43.6015592,44.8518321 43.2768589,46.700225 41.505517,47.7605464 C41.1282686,47.9868321 40.5816114,48.171475 40.0620126,48.171475 C39.9059368,48.171475 39.7526062,48.1545821 39.6067263,48.1176536 C36.3142343,47.2737964 32.8884112,46.2311536 30.3731606,43.6072607 C29.0825947,42.2605464 27.8626158,40.5873679 26.6445977,38.4918679 C25.905787,37.220975 25.3375615,35.8903679 24.7360033,34.4811893 C24.6505146,34.2792607 24.5638494,34.0761536 24.4760078,33.8722607 C23.8093527,35.5030107 22.7721157,38.0722964 21.7603685,40.5779393 C20.609408,43.4281179 19.522368,46.1207607 19.0055142,47.371225 C18.9329665,47.5468321 18.8172822,47.665475 18.7235583,47.7605464 C18.6921863,47.7923679 18.6568928,47.827725 18.6204229,47.8709393 L18.3800349,48.1490821 L18.025139,48.0547964 C17.912592,48.0249393 17.797692,47.9958679 17.6808313,47.9664036 C17.4141692,47.8988321 17.1388799,47.8289036 16.8679042,47.7460107 C15.375381,47.2867607 14.5534344,47.0341536 14.2059894,46.3360464 C13.8632503,45.6481536 14.1279516,44.8388679 14.6655893,43.3495464 C15.7957659,40.218475 17.0079017,37.061475 18.1808226,34.0085821 C18.8631637,32.2309036 19.545897,30.453225 20.2164737,28.6716179 C21.1525359,26.1848321 22.0611476,23.7483321 22.8889764,21.2749036 C23.2540682,20.1839393 24.1105239,19.3884036 25.179525,19.1471893 C26.1732333,18.9228679 27.1555693,19.2237964 27.8747725,19.9714036 C28.2320212,20.3426536 28.2986867,20.9390107 28.3069219,21.2615464 C28.4135867,25.4749393 29.6747413,29.4039036 31.1884406,33.736725 C32.2401871,36.7495464 33.9593731,39.2767964 35.7797337,41.9521536 L35.8758105,42.0943679 C35.9448289,41.8225107 36.0138473,41.5534036 36.0824736,41.2862607 C36.3961937,40.0621179 36.692267,38.9055464 36.9593212,37.732475 C37.6608776,34.6489393 38.3565519,31.5646179 39.0526183,28.4799036 C40.2490682,23.176725 41.4859095,17.6924393 42.7329467,12.3047964 C42.9541194,11.3505464 43.1160774,10.7518321 43.6337155,10.482725 C44.1627259,10.2073321 44.7344807,10.4399036 45.6807389,10.8249036 C48.970878,12.1641536 49.1304831,12.4466179 48.557944,15.8742964 L48.557944,15.8742964 Z" id="Fill-1" fill="#FEFEFE" mask="url(#mask-2)"></path>
                </g>
            </g>
        </g>
    </g>
</svg>
