<?xml version="1.0" encoding="UTF-8"?>
<svg width="35px" height="35px" viewBox="0 0 35 35" version="1.1" xmlns="http://www.w3.org/2000/svg" xmlns:xlink="http://www.w3.org/1999/xlink">
    <!-- Generator: Sketch 46 (44423) - http://www.bohemiancoding.com/sketch -->
    <title>Search</title>
    <desc>Image.</desc>
    <defs></defs>
    <g id="Homepage" stroke="none" stroke-width="1" fill="none" fill-rule="evenodd">
        <g id="Search-Page" transform="translate(-1368.000000, -278.000000)" fill="#000000">
            <g id="Search-Bar" transform="translate(166.000000, 255.000000)">
                <path d="M1236.46469,54.8823055 L1228.01206,46.4282475 C1232.43156,40.733087 1232.03276,32.4830483 1226.80414,27.2556388 C1224.05921,24.5107086 1220.41055,23 1216.52989,23 C1212.64781,23 1208.9989,24.5119917 1206.25564,27.2556388 C1203.51071,29.9991827 1202,33.6478104 1202,37.5298889 C1202,41.4119709 1203.51199,45.0608794 1206.25564,47.804139 C1209.00057,50.5490692 1212.64923,52.0597813 1216.52989,52.0597813 C1219.79546,52.0597813 1222.89292,50.9865406 1225.42967,49.0121969 L1233.88231,57.4648363 C1234.23913,57.8216591 1234.70564,57.9993774 1235.17354,57.9993774 C1235.64005,57.9993774 1236.10794,57.8216591 1236.46477,57.4648363 C1237.17841,56.7525769 1237.17841,55.5960218 1236.46477,54.8823762 L1236.46469,54.8823055 Z M1208.83768,45.2201186 C1206.78421,43.1652685 1205.65126,40.4341648 1205.65126,37.529537 C1205.65126,34.6235585 1206.78283,31.8926681 1208.83768,29.8375337 C1210.89114,27.7826837 1213.62363,26.6511158 1216.52826,26.6511158 C1219.43288,26.6511158 1222.16513,27.7826837 1224.22026,29.8375337 C1228.46204,34.0778923 1228.46204,40.9783383 1224.22026,45.2197631 C1222.16541,47.2746131 1219.43289,48.4061811 1216.52826,48.4061811 C1213.62363,48.4061811 1210.89281,47.2746131 1208.83768,45.2197631 L1208.83768,45.2201186 Z" id="Search"></path>
            </g>
        </g>
    </g>
</svg>
