<svg xmlns="http://www.w3.org/2000/svg" viewBox="0 0 17.01 17.01"><defs><style>.cls-1{fill:#fff;fill-rule:evenodd;}</style></defs><title>Twitter_black</title><g id="Layer_2" data-name="Layer 2"><g id="Layer_1-2" data-name="Layer 1"><circle cx="8.51" cy="8.5" r="8.5"/><path class="cls-1" d="M8.39,6.91v.3l-.29,0A4.88,4.88,0,0,1,5.28,5.78l-.39-.39-.1.29a1.72,1.72,0,0,0,.36,1.77c.24.26.19.29-.22.14-.14,0-.27-.08-.28-.06a2.23,2.23,0,0,0,.21.8,2,2,0,0,0,.82.77L6,9.24H5.62c-.33,0-.34,0-.3.14a1.75,1.75,0,0,0,1.11,1l.36.13-.32.19a3.36,3.36,0,0,1-1.59.44,1.82,1.82,0,0,0-.49.05,4.5,4.5,0,0,0,1.15.53,5,5,0,0,0,3.9-.44,5.29,5.29,0,0,0,2-2.34,6.17,6.17,0,0,0,.4-1.8c0-.27,0-.31.35-.64A4,4,0,0,0,12.59,6c.06-.12.05-.12-.25,0-.51.18-.58.15-.33-.12a1.78,1.78,0,0,0,.4-.64s-.09,0-.19.07a2.7,2.7,0,0,1-.52.2l-.32.1-.29-.2a3.08,3.08,0,0,0-.51-.26,2.15,2.15,0,0,0-1,0A1.71,1.71,0,0,0,8.39,6.91Z"/></g></g></svg>