<?xml version="1.0" standalone="no"?>
<!DOCTYPE svg PUBLIC "-//W3C//DTD SVG 20010904//EN"
 "http://www.w3.org/TR/2001/REC-SVG-20010904/DTD/svg10.dtd">
<svg version="1.0" xmlns="http://www.w3.org/2000/svg"
 width="70.000000pt" height="70.000000pt" viewBox="0 0 70.000000 70.000000"
 preserveAspectRatio="xMidYMid meet">
<metadata>
Created by potrace 1.11, written by Peter Selinger 2001-2013
</metadata>
<g transform="translate(0.000000,70.000000) scale(0.100000,-0.100000)"
fill="#000000" stroke="none">
<path d="M0 350 l0 -350 350 0 350 0 0 350 0 350 -350 0 -350 0 0 -350z m670
192 c0 -12 -84 -32 -133 -32 l-42 0 -32 -133 c-18 -72 -33 -144 -33 -158 0
-15 -7 -33 -16 -40 -14 -11 -18 -11 -29 5 -17 23 -11 62 31 203 19 62 34 115
34 118 0 2 -20 2 -44 -1 -45 -7 -66 5 -43 24 15 13 68 18 205 20 56 1 102 -2
102 -6z m-301 -76 c9 -11 7 -41 -9 -127 -11 -62 -24 -117 -29 -122 -19 -19
-72 5 -101 45 l-30 41 -19 -47 c-21 -47 -37 -58 -47 -31 -8 20 59 190 76 190
7 0 19 -23 27 -55 7 -30 21 -66 31 -80 16 -25 16 -24 43 85 15 61 28 111 28
113 3 7 20 0 30 -12z m-217 -51 c-2 -17 -17 -64 -33 -105 -16 -41 -29 -82 -29
-90 0 -22 -29 -60 -46 -60 -20 0 -18 26 10 106 54 156 67 185 84 182 12 -2 16
-12 14 -33z m464 13 c24 -11 26 -16 22 -60 -8 -84 -80 -154 -133 -130 -30 14
-33 50 -10 105 8 20 12 43 9 52 -14 36 58 57 112 33z"/>
<path d="M551 354 c-26 -70 -27 -82 0 -58 42 38 66 114 35 114 -7 0 -23 -25
-35 -56z"/>
</g>
</svg>
